<svg xmlns="http://www.w3.org/2000/svg" version="1.1" xmlns:xlink="http://www.w3.org/1999/xlink" xmlns:svgjs="http://svgjs.dev/svgjs" width="1500" height="935" viewBox="0 0 1500 935"><g transform="matrix(1,0,0,1,-0.9090909090909918,0.3785425101214628)"><svg viewBox="0 0 396 247" data-background-color="#ffffff" preserveAspectRatio="xMidYMid meet" height="935" width="1500" xmlns="http://www.w3.org/2000/svg" xmlns:xlink="http://www.w3.org/1999/xlink"><g id="tight-bounds" transform="matrix(1,0,0,1,0.2400000000000091,-0.09999999999999432)"><svg viewBox="0 0 395.52 247.2" height="247.2" width="395.52"><g><svg></svg></g><g><svg viewBox="0 0 395.52 247.2" height="247.2" width="395.52"><g transform="matrix(1,0,0,1,75.54432,91.30964198307134)"><svg viewBox="0 0 244.43135999999998 64.58071603385731" height="64.58071603385731" width="244.43135999999998"><g><svg viewBox="0 0 244.43135999999998 64.58071603385731" height="64.58071603385731" width="244.43135999999998"><g><svg viewBox="0 0 244.43135999999998 64.58071603385731" height="64.58071603385731" width="244.43135999999998"><g><svg viewBox="0 0 244.43135999999998 64.58071603385731" height="64.58071603385731" width="244.43135999999998"><g id="textblocktransform"><svg viewBox="0 0 244.43135999999998 64.58071603385731" height="64.58071603385731" width="244.43135999999998" id="textblock"><g><svg viewBox="0 0 244.43135999999998 64.58071603385731" height="64.58071603385731" width="244.43135999999998"><g transform="matrix(1,0,0,1,0,0)"><svg width="244.43135999999998" viewBox="5.42 -40.41 201.89000000000001 53.349999999999994" height="64.58071603385731" data-palette-color="#ffa458"><path d="M5.42 0L5.42-38.16 37.92-38.16 37.92-31.37 13.16-31.37 13.16-23.75 35.08-23.75 35.08-17.38 13.16-17.38 13.16-6.76 38.43-6.76 38.43 0 5.42 0ZM44.94-16.7L44.94-22.12 67.33-22.12 67.33-16.7 44.94-16.7ZM82.22-2.08L82.22 11.77 75 11.77 75-28.81 82.22-28.81 82.22-26.1Q83.17-26.76 84.47-27.34 85.76-27.93 87.25-28.37 88.74-28.81 90.33-29.06 91.91-29.32 93.5-29.32L93.5-29.32Q97.16-29.32 100.23-28.25 103.29-27.17 105.49-25.22 107.69-23.27 108.92-20.54 110.15-17.82 110.15-14.53L110.15-14.53Q110.15-11.08 108.86-8.31 107.56-5.54 105.28-3.58 103-1.61 99.86-0.55 96.72 0.51 93.06 0.51L93.06 0.51Q91.5 0.51 89.97 0.32 88.45 0.12 87.04-0.22 85.64-0.56 84.41-1.04 83.17-1.51 82.22-2.08L82.22-2.08ZM82.22-19.04L82.22-9.06Q83.32-8.18 84.54-7.57 85.76-6.96 87.03-6.57 88.3-6.18 89.59-5.99 90.89-5.81 92.11-5.81L92.11-5.81Q94.6-5.81 96.54-6.48 98.48-7.15 99.81-8.33 101.14-9.5 101.85-11.08 102.56-12.67 102.56-14.53L102.56-14.53Q102.56-16.26 101.86-17.8 101.17-19.34 99.86-20.5 98.55-21.66 96.71-22.33 94.87-23 92.57-23L92.57-23Q91.11-23 89.64-22.72 88.18-22.44 86.82-21.92 85.47-21.41 84.28-20.68 83.1-19.95 82.22-19.04L82.22-19.04ZM116.96-13.75L116.96-28.83 124.16-28.83 124.16-14.77Q124.16-12.77 124.6-11.12 125.04-9.47 126.1-8.3 127.17-7.13 128.94-6.48 130.71-5.83 133.34-5.83L133.34-5.83Q134.59-5.83 135.87-6.1 137.15-6.37 138.32-6.85 139.49-7.32 140.51-7.98 141.52-8.64 142.25-9.42L142.25-9.42 142.25-28.83 149.48-28.83 149.48 0 142.25 0 142.25-2.47Q139.59-0.88 136.91-0.2 134.22 0.49 131.8 0.49L131.8 0.49Q127.85 0.49 125.03-0.46 122.21-1.42 120.41-3.23 118.62-5.05 117.79-7.7 116.96-10.35 116.96-13.75L116.96-13.75ZM162.47-32.74L162.47-32.74Q161.39-32.74 160.52-33.04 159.66-33.35 159.05-33.87 158.44-34.4 158.11-35.1 157.78-35.79 157.78-36.57L157.78-36.57Q157.78-37.38 158.11-38.07 158.44-38.77 159.05-39.28 159.66-39.79 160.52-40.1 161.39-40.41 162.47-40.41L162.47-40.41Q163.56-40.41 164.43-40.1 165.3-39.79 165.91-39.28 166.52-38.77 166.85-38.07 167.18-37.38 167.18-36.57L167.18-36.57Q167.18-35.79 166.85-35.1 166.52-34.4 165.91-33.87 165.3-33.35 164.43-33.04 163.56-32.74 162.47-32.74ZM158.85-3.27L158.85-28.81 166.08-28.81 166.08-4.32Q166.08-2.17 165.9-0.43 165.71 1.32 165.29 2.81 164.86 4.3 164.14 5.59 163.42 6.88 162.34 8.08 161.27 9.28 159.78 10.46 158.29 11.65 156.34 12.94L156.34 12.94 153.68 6.81Q155.19 5.69 156.19 4.59 157.19 3.49 157.78 2.29 158.36 1.1 158.61-0.27 158.85-1.64 158.85-3.27L158.85-3.27ZM173.96-9.08L173.96-9.08Q173.96-11.16 174.87-12.87 175.77-14.58 177.58-15.81 179.38-17.04 182.08-17.71 184.78-18.38 188.37-18.38L188.37-18.38Q191.03-18.38 193.97-17.99 196.91-17.6 200.04-16.8L200.04-16.8Q199.91-18.16 199.21-19.32 198.5-20.48 197.24-21.33 195.98-22.17 194.21-22.63 192.44-23.1 190.2-23.1L190.2-23.1Q188.98-23.1 187.51-22.95 186.05-22.8 184.48-22.51 182.92-22.22 181.4-21.78 179.87-21.34 178.55-20.73L178.55-20.73 176.35-26.66Q177.99-27.25 179.86-27.73 181.73-28.22 183.68-28.58 185.63-28.93 187.59-29.13 189.54-29.32 191.37-29.32L191.37-29.32Q199.45-29.32 203.38-25.2 207.31-21.07 207.31-12.55L207.31-12.55 207.31 0 200.09 0 200.09-2.71Q198.96-2.05 197.63-1.46 196.3-0.88 194.74-0.44 193.18 0 191.38 0.26 189.59 0.51 187.59 0.51L187.59 0.51Q184.22 0.51 181.66-0.22 179.11-0.95 177.4-2.25 175.7-3.54 174.83-5.29 173.96-7.03 173.96-9.08ZM181.58-9.33L181.58-9.33Q181.58-8.62 181.95-7.97 182.31-7.32 183.12-6.82 183.92-6.32 185.18-6.02 186.44-5.71 188.22-5.71L188.22-5.71Q190.12-5.71 191.91-6.05 193.69-6.4 195.23-6.96 196.76-7.52 198.01-8.25 199.26-8.98 200.09-9.77L200.09-9.77 200.09-11.04Q198.43-11.5 196.8-11.82 195.18-12.13 193.7-12.32 192.22-12.5 190.92-12.57 189.61-12.65 188.63-12.65L188.63-12.65Q186.61-12.65 185.27-12.38 183.92-12.11 183.09-11.66 182.26-11.21 181.92-10.6 181.58-9.99 181.58-9.33Z" opacity="1" transform="matrix(1,0,0,1,0,0)" fill="#ffa458" class="wordmark-text-0" data-fill-palette-color="primary" id="text-0"></path></svg></g></svg></g></svg></g></svg></g></svg></g></svg></g></svg></g><g><path d="M245.816 0c68.262 0 123.6 55.338 123.6 123.6 0 68.262-55.338 123.6-123.6 123.6-54.296 0-100.415-35.01-117.014-83.687h3.082c16.478 47.04 61.266 80.775 113.932 80.775 66.654 0 120.688-54.034 120.688-120.688 0-66.654-54.034-120.688-120.688-120.688-52.666 0-97.453 33.735-113.932 80.775l-3.082 0c16.599-48.677 62.718-83.687 117.014-83.687z" fill="#ffa458" stroke="transparent" data-fill-palette-color="tertiary"></path></g></svg></g><defs></defs></svg><rect width="395.52" height="247.2" fill="none" stroke="none" visibility="hidden"></rect></g></svg></g></svg>